HIERARCHY
ROOT hip
{
	OFFSET 0.000000 0.000000 0.000000
	CHANNELS 6 Xposition Yposition Zposition Xrotation Zrotation Yrotation 
	JOINT abdomen
	{
		OFFSET 0.000000 3.422050 0.000000
		CHANNELS 3 Xrotation Zrotation Yrotation 
		JOINT chest
		{
			OFFSET 0.000000 8.486693 -0.684411
			CHANNELS 3 Xrotation Zrotation Yrotation 
			JOINT neck
			{
				OFFSET 0.000000 10.266162 -0.273764
				CHANNELS 3 Xrotation Zrotation Yrotation 
				JOINT head
				{
					OFFSET 0.000000 3.148285 0.000000
					CHANNELS 3 Xrotation Zrotation Yrotation 
					End Site
					{
						OFFSET 0.000000 3.148289 0.000000
					}
				}
			}
			JOINT lCollar
			{
				OFFSET 3.422053 6.707223 -0.821293
				CHANNELS 3 Yrotation Zrotation Xrotation 
				JOINT lShldr
				{
					OFFSET 3.285171 0.000000 0.000000
					CHANNELS 3 Zrotation Yrotation Xrotation 
					JOINT lForeArm
					{
						OFFSET 10.129278 0.000000 0.000000
						CHANNELS 3 Yrotation Zrotation Xrotation 
						JOINT lHand
						{
							OFFSET 8.486692 0.000000 0.000000
							CHANNELS 3 Zrotation Yrotation Xrotation 
							End Site
							{
								OFFSET 4.106464 0.000000 0.000000
							}
						}
					}
				}
			}
			JOINT rCollar
			{
				OFFSET -3.558935 6.707223 -0.821293
				CHANNELS 3 Yrotation Zrotation Xrotation 
				JOINT rShldr
				{
					OFFSET -3.148289 0.000000 0.000000
					CHANNELS 3 Zrotation Yrotation Xrotation 
					JOINT rForeArm
					{
						OFFSET -10.266159 0.000000 0.000000
						CHANNELS 3 Yrotation Zrotation Xrotation 
						JOINT rHand
						{
							OFFSET -8.349810 0.000000 0.000000
							CHANNELS 3 Zrotation Yrotation Xrotation 
							End Site
							{
								OFFSET -4.106464 0.000000 0.000000
							}
						}
					}
				}
			}
		}
	}
	JOINT lThigh
	{
		OFFSET 5.338403 -1.642589 1.368821
		CHANNELS 3 Xrotation Zrotation Yrotation 
		JOINT lShin
		{
			OFFSET -2.053232 -20.121670 0.000000
			CHANNELS 3 Xrotation Zrotation Yrotation 
			JOINT lFoot
			{
				OFFSET 0.000000 -19.300380 -1.231939
				CHANNELS 3 Xrotation Yrotation Zrotation 
				End Site
				{
					OFFSET 0.000000 -2.463878 4.653993
				}
			}
		}
	}
	JOINT rThigh
	{
		OFFSET -5.338403 -1.642589 1.368821
		CHANNELS 3 Xrotation Zrotation Yrotation 
		JOINT rShin
		{
			OFFSET 2.053232 -20.121670 0.000000
			CHANNELS 3 Xrotation Zrotation Yrotation 
			JOINT rFoot
			{
				OFFSET 0.000000 -19.300380 -1.231939
				CHANNELS 3 Xrotation Yrotation Zrotation 
				End Site
				{
					OFFSET 0.000000 -2.463878 4.653993
				}
			}
		}
	}
}
MOTION
Frames: 8
Frame Time: 0.033264
-22.002388 4.999550 0.000000 -90.001884 0.000000 0.000000 23.080694 -1.157635 -0.195329 17.504135 -2.163984 -0.090778 17.998348 0.000000 0.000000 -8.018706 25.997200 -0.001896 17.470062 15.940521 -1.184235 -17.704838 34.736546 35.639603 -44.788860 19.859512 26.275074 -7.002601 0.199413 23.599226 -8.610972 -0.665439 0.337423 76.742165 -30.292879 0.734295 138.717041 -0.004426 20.000540 8.123437 9.420974 -10.697560 -1.018463 19.715057 0.399845 9.288822 -1.438944 -0.146727 32.222782 9.467977 -4.213965 -28.945639 -14.458828 -7.162262 84.146278 2.206906 0.112330 15.318498 13.414724 9.162183 
-22.002388 4.999550 0.000000 -90.001877 0.000000 0.000000 23.080694 -1.157635 -0.195329 17.504135 -2.163984 -0.090778 17.998348 0.000000 0.000000 -7.239172 25.997231 -0.001904 17.470062 15.940521 -1.184235 -17.704838 34.736546 35.639599 -44.788860 19.859512 26.275074 -7.002601 0.199413 23.599224 -8.610972 -0.665439 0.337423 76.742165 -30.292879 0.734295 138.372147 -0.004478 20.000473 8.135441 9.356309 -10.466299 -1.018463 19.715057 0.399845 9.288822 -1.438944 -0.146727 32.222782 9.467977 -4.213965 -28.859547 -14.424967 -7.120379 83.843369 2.210175 0.113441 15.318498 13.414724 9.162183 
-22.002388 4.999550 0.000000 -90.001877 0.000000 0.000000 23.080694 -1.157635 -0.195329 17.504135 -2.163984 -0.090778 17.998348 0.000000 0.000000 -6.460915 25.997263 -0.001911 17.470062 15.940521 -1.184235 -17.704838 34.736546 35.639599 -44.788860 19.859512 26.275074 -7.002601 0.199413 23.599224 -8.610972 -0.665439 0.337423 76.742165 -30.292879 0.734295 138.027328 -0.004529 20.000402 8.147182 9.291576 -10.235008 -1.018463 19.715057 0.399845 9.288822 -1.438944 -0.146727 32.222782 9.467977 -4.213965 -28.773449 -14.391170 -7.078446 83.540260 2.213452 0.114536 15.318498 13.414724 9.162183 
-22.002388 4.999550 0.000000 -90.001877 0.000000 0.000000 23.080694 -1.157635 -0.195329 17.504135 -2.163984 -0.090778 17.998348 0.000000 0.000000 -5.684004 25.997292 -0.001918 17.470062 15.940521 -1.184235 -17.704838 34.736546 35.639599 -44.788860 19.859512 26.275074 -7.002601 0.199413 23.599224 -8.610972 -0.665439 0.337423 76.742165 -30.292879 0.734295 137.682571 -0.004579 20.000330 8.158661 9.226768 -10.003678 -1.018463 19.715057 0.399845 9.288822 -1.438944 -0.146727 32.222782 9.467977 -4.213965 -28.687330 -14.357430 -7.036467 83.237015 2.216736 0.115613 15.318498 13.414724 9.162183 
-22.002388 4.999550 0.000000 -90.001877 0.000000 0.000000 23.080694 -1.157635 -0.195329 17.504135 -2.163984 -0.090778 17.998348 0.000000 0.000000 -4.908508 25.997322 -0.001925 17.470062 15.940521 -1.184235 -17.704838 34.736546 35.639599 -44.788860 19.859512 26.275074 -7.002601 0.199413 23.599224 -8.610972 -0.665439 0.337423 76.742165 -30.292879 0.734295 137.337891 -0.004630 20.000257 8.169875 9.161890 -9.772318 -1.018463 19.715057 0.399845 9.288822 -1.438944 -0.146727 32.222782 9.467977 -4.213965 -28.601187 -14.323746 -6.994435 82.933601 2.220028 0.116674 15.318498 13.414724 9.162183 
-22.002388 4.999550 0.000000 -90.001877 0.000000 0.000000 23.080694 -1.157635 -0.195329 17.504135 -2.163984 -0.090778 17.998348 0.000000 0.000000 -4.134488 25.997351 -0.001931 17.470062 15.940521 -1.184235 -17.704838 34.736546 35.639599 -44.788860 19.859512 26.275074 -7.002601 0.199413 23.599226 -8.610972 -0.665439 0.337423 76.742165 -30.292879 0.734295 136.993301 -0.004680 20.000183 8.180827 9.096948 -9.540930 -1.018463 19.715057 0.399845 9.288822 -1.438944 -0.146727 32.222782 9.467977 -4.213965 -28.515038 -14.290128 -6.952358 82.630051 2.223327 0.117719 15.318498 13.414724 9.162183 
-22.002388 4.999550 0.000000 -90.001877 0.000000 0.000000 23.080694 -1.157635 -0.195329 17.504135 -2.163984 -0.090778 17.998348 0.000000 0.000000 -3.362021 25.997385 -0.001936 17.470062 15.940521 -1.184235 -17.704838 34.736546 35.639599 -44.788860 19.859512 26.275074 -7.002601 0.199413 23.599224 -8.610972 -0.665439 0.337423 76.742165 -30.292879 0.734295 137.315659 -0.004634 20.000248 8.191516 9.031936 -9.309513 -1.018463 19.715057 0.399845 9.288822 -1.438944 -0.146727 32.222782 9.467977 -4.213965 -28.428862 -14.256562 -6.910230 82.326332 2.226633 0.118746 15.318498 13.414724 9.162183 
-22.002388 4.999550 0.000000 -90.001877 0.000000 0.000000 23.080694 -1.157635 -0.195329 17.504135 -2.163984 -0.090778 17.998348 0.000000 0.000000 -2.591164 25.997414 -0.001941 17.470062 15.940521 -1.184235 -17.704838 34.736546 35.639599 -44.788860 19.859512 26.275074 -7.002601 0.199413 23.599226 -8.610972 -0.665439 0.337423 76.742165 -30.292879 0.734295 137.638092 -0.004586 20.000317 8.201941 8.966861 -9.078068 -1.018463 19.715057 0.399845 9.288822 -1.438944 -0.146727 32.222782 9.467977 -4.213965 -28.342667 -14.223058 -6.868054 82.022469 2.229946 0.119756 15.318498 13.414724 9.162183 
